:SAMPLES-PER-SECOND 30
:FULLY-SPECIFIED
:DEGREES
329
root  19.8933 33.0712 -40.5886 19.304 -74.1769 -9.29468
RightUpLeg  -39.1437 2.69458 0.184736
RightLeg  84.3009 -1.74489 -28.2425
RightFoot  -9.00104 -0.255515 9.35178
RightToes  1.16414e-010 0 -3.6325e-017
Spine  46.9621 -6.01263 -16.0436
Spine1  13.4517 -6.09842 -23.4839
HEad  -25.8486 2.94525 -27.7651
LeftShoulder1  0.119674 8.1165 12.6659
LeftArm  -123.431 -54.8872 19.3495
LeftForeArm  -60.4614 -36.3298 -10.5633
LeftHand  0.109438 -0.906138 -1.96658
RightShoulder  2.86971 7.5794 19.4662
RightArm  58.1849 -45.2772 58.3766
RightForeArm  46.7881 38.3219 6.01095
RightHand  0.00858028 -9.55155 0.578688
LeftUpLeg  -61.7892 20.9659 -24.7052
LeftLeg  39.2421 7.32019 6.76795
LeftFoot  -2.46872 -0.843973 11.0296
LeftToes  7.09373e-011 9.9627e-011 8.96859e-012
330
root  19.7558 32.8411 -39.063 17.0136 -75.8915 -6.03345
RightUpLeg  -44.985 -4.93029 5.75403
RightLeg  88.5847 0.502555 -22.4547
RightFoot  -10.2454 -0.207451 16.4867
RightToes  1.16414e-010 0 -3.6325e-017
Spine  47.1999 -5.40724 -15.8906
Spine1  12.0782 -5.56788 -22.9394
HEad  -26.452 4.55515 -26.2405
LeftShoulder1  0.178952 9.41622 13.1083
LeftArm  -125.527 -51.9377 18.1841
LeftForeArm  -62.0494 -31.2648 -9.06921
LeftHand  0.07686 1.72373 -2.71255
RightShoulder  2.93514 7.55759 20.1637
RightArm  57.8453 -47.0826 58.6634
RightForeArm  47.3993 39.9914 6.43657
RightHand  -0.0971227 -11.7961 0.688352
LeftUpLeg  -63.2395 22.413 -30.1422
LeftLeg  40.351 6.87938 6.63904
LeftFoot  -4.09677 -0.861663 13.946
LeftToes  7.09373e-011 9.9627e-011 8.96859e-012
331
root  19.6155 32.5523 -37.464 14.6884 -77.8734 -3.67419
RightUpLeg  -48.141 -12.1736 14.3341
RightLeg  90.7267 0.885225 -11.75
RightFoot  -12.291 0.110781 23.9606
RightToes  1.16414e-010 0 -3.6325e-017
Spine  47.0482 -4.47443 -15.4095
Spine1  11.2802 -4.16275 -22.928
HEad  -29.6237 6.34392 -24.1528
LeftShoulder1  0.239844 10.481 13.5693
LeftArm  -127.488 -50.4807 16.3117
LeftForeArm  -60.3887 -27.3437 -8.04492
LeftHand  0.0307997 1.95582 -1.48467
RightShoulder  2.86915 7.1738 20.5213
RightArm  57.1083 -46.8923 60.8322
RightForeArm  46.8413 40.4518 6.59887
RightHand  0.0909175 -12.8229 -2.48714
LeftUpLeg  -63.351 21.9762 -32.857
LeftLeg  42.3143 9.02025 9.12864
LeftFoot  -5.94521 -0.757988 16.725
LeftToes  7.09373e-011 9.9627e-011 8.96859e-012
332
root  19.4836 32.2239 -35.8245 13.3552 -80.2177 -2.8017
RightUpLeg  -49.533 -18.7989 24.0761
RightLeg  89.2975 0.336065 2.0004
RightFoot  -10.0705 -0.407973 27.5086
RightToes  1.16414e-010 0 -3.6325e-017
Spine  46.1684 -3.66013 -15.0689
Spine1  10.4358 -2.74249 -23.3768
HEad  -34.0853 9.37345 -22.2728
LeftShoulder1  0.290227 10.8655 14.1466
LeftArm  -126.689 -47.9186 13.4085
LeftForeArm  -59.3971 -24.8169 -7.23272
LeftHand  0.0168887 1.39616 -0.712408
RightShoulder  2.76325 6.86179 20.2976
RightArm  55.3735 -45.0903 63.5265
RightForeArm  46.9796 40.1766 6.51395
RightHand  0.00283423 -11.7515 -0.982052
LeftUpLeg  -63.1619 20.8418 -33.9841
LeftLeg  44.989 11.6201 12.5881
LeftFoot  -7.46276 -0.587975 18.4505
LeftToes  7.09373e-011 9.9627e-011 8.96859e-012
333
root  19.3807 31.9944 -34.1313 9.48175 -82.7523 0.934174
RightUpLeg  -50.0578 -25.1356 32.1833
RightLeg  83.305 0.936626 8.86971
RightFoot  -1.89807 -2.55366 30.2548
RightToes  1.16414e-010 0 -3.6325e-017
Spine  44.9782 -3.2635 -15.3169
Spine1  8.12434 -2.19975 -24.1857
HEad  -37.1662 12.7843 -20.216
LeftShoulder1  0.286961 10.4359 14.3676
LeftArm  -121.665 -44.1658 10.7588
LeftForeArm  -62.8241 -23.1527 -5.31497
LeftHand  0.0366124 1.82422 -1.56816
RightShoulder  2.76719 6.81954 20.4549
RightArm  53.9241 -42.4926 64.8178
RightForeArm  47.9633 38.7505 6.06885
RightHand  -0.0974117 -8.34616 1.69366
LeftUpLeg  -63.2985 20.2455 -36.1798
LeftLeg  46.7241 12.6439 14.4078
LeftFoot  -7.6086 -0.55596 18.3335
LeftToes  7.09373e-011 9.9627e-011 8.96859e-012
334
root  19.3469 32.0103 -32.4009 2.62796 -85.3277 7.93942
RightUpLeg  -48.2205 -29.0867 36.0833
RightLeg  74.5634 2.07817 7.59532
RightFoot  2.95531 -3.64256 28.8151
RightToes  1.16414e-010 0 -3.6325e-017
Spine  43.9159 -3.05065 -15.2239
Spine1  4.63941 -2.3098 -25.3053
HEad  -39.0743 15.5105 -17.8019
LeftShoulder1  0.203223 8.93884 13.8873
LeftArm  -112.761 -40.0106 9.40296
LeftForeArm  -70.2549 -21.2552 -1.44894
LeftHand  0.052445 2.11218 -2.30612
RightShoulder  2.82886 6.85481 20.9963
RightArm  53.8811 -39.5778 64.5616
RightForeArm  47.0639 36.2191 5.4549
RightHand  -0.0418075 -6.26572 0.966682
LeftUpLeg  -63.654 20.6805 -39.3996
LeftLeg  46.8229 13.1119 14.9472
LeftFoot  -5.52525 -0.861393 17.4486
LeftToes  7.09373e-011 9.9627e-011 8.96859e-012
335
root  19.4185 32.1469 -30.6204 -14.5675 -87.9293 24.6343
RightUpLeg  -42.611 -28.0248 34.7355
RightLeg  66.4718 3.15342 7.16571
RightFoot  -1.67852 -1.77346 19.295
RightToes  1.16414e-010 0 -3.6325e-017
Spine  42.8946 -2.48849 -14.0575
Spine1  1.90035 -2.08631 -26.0448
HEad  -41.5127 17.4078 -15.7123
LeftShoulder1  0.113885 7.69911 12.784
LeftArm  -102.167 -37.2786 8.50057
LeftForeArm  -79.233 -18.352 3.57912
LeftHand  0.0565457 1.21684 -1.80088
RightShoulder  2.81407 6.81472 20.9559
RightArm  55.5999 -36.2545 63.6606
RightForeArm  42.695 32.9653 4.88586
RightHand  -0.0407573 -7.53681 -0.106508
LeftUpLeg  -64.2362 21.9218 -41.8876
LeftLeg  47.1094 13.4778 15.483
LeftFoot  -1.54617 -1.47198 16.9242
LeftToes  7.09373e-011 9.9627e-011 8.96859e-012
336
root  19.5811 32.1255 -28.6953 141.269 -89.8187 -133
RightUpLeg  -35.1207 -22.3595 31.0329
RightLeg  61.6204 3.8668 7.26501
RightFoot  -14.1185 -0.0190752 5.16922
RightToes  1.16414e-010 0 -3.6325e-017
Spine  41.9685 -1.49586 -12.591
Spine1  0.997727 -1.11405 -25.17
HEad  -44.4697 18.7082 -14.2403
LeftShoulder1  0.0768039 7.59254 11.8105
LeftArm  -93.0795 -36.1628 6.33914
LeftForeArm  -87.1925 -14.8179 7.68405
LeftHand  0.0544621 0.470389 -1.35192
RightShoulder  2.73038 6.70849 20.3813
RightArm  59.977 -32.4006 62.2493
RightForeArm  35.989 28.9197 4.22012
RightHand  -0.0812991 -9.35879 0.827846
LeftUpLeg  -64.9511 23.0794 -42.4888
LeftLeg  49.434 11.217 14.0633
LeftFoot  5.4682 -2.20253 14.6693
LeftToes  7.09373e-011 9.9627e-011 8.96859e-012
337
root  19.7746 31.9885 -26.8026 179.594 -88.2875 -174.162
RightUpLeg  -29.0205 -16.2743 29.249
RightLeg  59.0648 0.379434 0.228075
RightFoot  -27.0186 -0.836913 -5.23633
RightToes  1.16414e-010 0 -3.6325e-017
Spine  41.198 -0.190624 -11.7311
Spine1  1.11841 -0.131546 -22.2419
HEad  -46.7028 19.479 -12.7183
LeftShoulder1  0.0409836 7.11382 10.9354
LeftArm  -85.4947 -34.5842 4.10744
LeftForeArm  -94.448 -11.2692 10.3852
LeftHand  0.0680371 1.07189 -2.04333
RightShoulder  2.64775 6.45253 20.232
RightArm  66.3009 -28.3462 60.248
RightForeArm  29.0751 24.1254 4.2313
RightHand  -0.115106 -10.3018 1.34912
LeftUpLeg  -65.2386 24.0525 -40.6758
LeftLeg  52.8999 5.50678 8.20626
LeftFoot  18.8341 -1.33213 5.25246
LeftToes  7.09373e-011 9.9627e-011 8.96859e-012
